<svg t="1715139334195" class="icon" viewBox="0 0 1024 1024" version="1.1" xmlns="http://www.w3.org/2000/svg" p-id="6734" width="32" height="32"><path d="M820 600V344a152 152 0 0 0-304 0v256a192 192 0 0 1-384 0V344c0-1.34 0.072-2.664 0.1-4h40c-0.032 1.332-0.1 2.66-0.1 4v256a152 152 0 0 0 304 0V344c0-1.34-0.068-2.668-0.1-4h0.2A191.972 191.972 0 0 1 860 344v256h-40z" fill="#7FE6F9" p-id="6735"></path><path d="M836 908a64 64 0 0 1-62.272-49.436c-0.128-0.56-0.312-1.1-0.428-1.664A64.344 64.344 0 0 1 772 844v-192a64.356 64.356 0 0 1 83.032-61.124c0.44 0.14 0.856 0.328 1.292 0.476A64 64 0 0 1 900 652v192a64 64 0 0 1-64 64z m24-256a24 24 0 0 0-48 0v192a24 24 0 0 0 48 0v-192zM152 348a63.968 63.968 0 0 1-62.084-48.712c-0.196-0.8-0.448-1.576-0.616-2.4A64.272 64.272 0 0 1 88 284V92a64 64 0 0 1 128 0v192a64 64 0 0 1-64 64z m24-256a24 24 0 0 0-48 0v192a24 24 0 0 0 48 0V92z" fill="#8A74FB" p-id="6736"></path></svg>